<svg width="118" height="100" viewBox="0 0 118 100" fill="none" xmlns="http://www.w3.org/2000/svg">
<g clip-path="url(#clip0)">
<path d="M106.522 65.4565C110.363 65.4565 113.477 62.343 113.477 58.5022C113.477 54.6615 110.363 51.548 106.522 51.548C102.682 51.548 99.568 54.6615 99.568 58.5022C99.568 62.343 102.682 65.4565 106.522 65.4565Z" fill="#F2F2F2"/>
<path d="M74.7902 65.4565C78.6309 65.4565 81.7444 62.343 81.7444 58.5022C81.7444 54.6615 78.6309 51.548 74.7902 51.548C70.9494 51.548 67.8359 54.6615 67.8359 58.5022C67.8359 62.343 70.9494 65.4565 74.7902 65.4565Z" fill="#F2F2F2"/>
<path d="M81.9505 2.81647H64.9512V23.0096H81.9505V2.81647Z" fill="#F2F2F2"/>
<path d="M86.3124 23.1474H64.8133V0H86.3124V23.1474ZM65.089 22.8718H86.0368V0.275638H65.089V22.8718Z" fill="#3F3D56"/>
<path d="M86.3124 68.6851H64.8133V45.5376H86.3124V68.6851ZM65.089 68.4095H86.0368V45.8133H65.089V68.4095Z" fill="#3F3D56"/>
<path d="M54.8894 68.6851H33.3903V45.5376H54.8894V68.6851ZM33.6659 68.4095H54.6137V45.8133H33.6659V68.4095Z" fill="#3F3D56"/>
<path d="M117.735 68.6851H96.2364V45.5376H117.735V68.6851ZM96.512 68.4095H117.46V45.8133H96.512V68.4095Z" fill="#3F3D56"/>
<path d="M75.7007 23.0096H75.425V45.6755H75.7007V23.0096Z" fill="#3F3D56"/>
<path d="M107.124 45.6755H106.848V33.038H44.2777V45.6755H44.002V32.7623H107.124V45.6755Z" fill="#3F3D56"/>
<path d="M79.0657 9.22935H64.9512V9.50499H79.0657V9.22935Z" fill="#3F3D56"/>
<path d="M79.0657 12.9813H64.9512V13.2569H79.0657V12.9813Z" fill="#3F3D56"/>
<path d="M79.0657 16.7332H64.9512V17.0089H79.0657V16.7332Z" fill="#3F3D56"/>
<path d="M59.2794 98.9764H3.34924V99.2209H59.2794V98.9764Z" fill="#3F3D56"/>
<path d="M44.1398 65.4565C48.7487 65.4565 52.485 61.7202 52.485 57.1114C52.485 52.5025 48.7487 48.7662 44.1398 48.7662C39.5309 48.7662 35.7947 52.5025 35.7947 57.1114C35.7947 61.7202 39.5309 65.4565 44.1398 65.4565Z" fill="#B2E595"/>
<path d="M49.3942 56.2872H44.964V51.857H43.3156V56.2872H38.8854V57.9356H43.3156V62.3657H44.964V57.9356H49.3942V56.2872Z" fill="white"/>
<path d="M75.5629 65.5943C73.8851 65.5943 72.245 65.0968 70.85 64.1647C69.455 63.2326 68.3677 61.9077 67.7257 60.3577C67.0836 58.8076 66.9156 57.102 67.2429 55.4565C67.5702 53.811 68.3782 52.2994 69.5645 51.1131C70.7509 49.9267 72.2624 49.1188 73.9079 48.7915C75.5534 48.4641 77.2591 48.6321 78.8091 49.2742C80.3592 49.9162 81.684 51.0035 82.6161 52.3985C83.5483 53.7935 84.0458 55.4336 84.0458 57.1113C84.0433 59.3604 83.1487 61.5165 81.5584 63.1069C79.9681 64.6972 77.8119 65.5917 75.5629 65.5943ZM75.5629 48.9041C73.9396 48.9041 72.3528 49.3854 71.0031 50.2873C69.6535 51.1891 68.6015 52.4709 67.9803 53.9706C67.3591 55.4703 67.1966 57.1205 67.5133 58.7126C67.83 60.3046 68.6116 61.767 69.7595 62.9148C70.9073 64.0626 72.3697 64.8443 73.9617 65.161C75.5538 65.4776 77.204 65.3151 78.7037 64.6939C80.2034 64.0727 81.4852 63.0207 82.387 61.6711C83.2889 60.3214 83.7702 58.7346 83.7702 57.1113C83.7677 54.9354 82.9022 52.8493 81.3636 51.3106C79.8249 49.772 77.7388 48.9066 75.5629 48.9041Z" fill="#3F3D56"/>
<path d="M80.955 58.0734H70.1707V56.1493H80.955L80.955 58.0734ZM70.4463 57.7977H80.6794V56.4249H70.4463V57.7977Z" fill="#3F3D56"/>
<path d="M106.986 65.5943C105.308 65.5943 103.668 65.0968 102.273 64.1647C100.878 63.2326 99.7908 61.9078 99.1487 60.3577C98.5067 58.8077 98.3387 57.1021 98.666 55.4565C98.9933 53.811 99.8012 52.2995 100.988 51.1131C102.174 49.9267 103.685 49.1188 105.331 48.7915C106.976 48.4641 108.682 48.6321 110.232 49.2742C111.782 49.9162 113.107 51.0035 114.039 52.3985C114.971 53.7935 115.469 55.4336 115.469 57.1113C115.466 59.3603 114.572 61.5165 112.981 63.1068C111.391 64.6972 109.235 65.5917 106.986 65.5943ZM106.986 48.9041C105.363 48.9041 103.776 49.3854 102.426 50.2872C101.077 51.1891 100.025 52.4709 99.4034 53.9706C98.7822 55.4703 98.6196 57.1205 98.9363 58.7125C99.253 60.3046 100.035 61.767 101.182 62.9148C102.33 64.0626 103.793 64.8443 105.385 65.161C106.977 65.4777 108.627 65.3151 110.127 64.6939C111.626 64.0727 112.908 63.0208 113.81 61.6711C114.712 60.3214 115.193 58.7346 115.193 57.1113C115.191 54.9354 114.325 52.8493 112.787 51.3107C111.248 49.7721 109.162 48.9066 106.986 48.9041Z" fill="#3F3D56"/>
<path d="M109.115 59.5452V58.0734H102.006V56.1493H109.115V54.664L112.044 57.1933L109.115 59.5452ZM102.281 57.7977H109.39V58.9703L111.613 57.1855L109.39 55.2661V56.4249H102.281V57.7977Z" fill="#3F3D56"/>
<path d="M35.2239 49.5002C35.2239 49.5002 38.1576 55.6122 36.2018 55.8567C34.246 56.1011 33.757 50.3559 33.757 50.3559L35.2239 49.5002Z" fill="#FFB9B9"/>
<path d="M24.1001 88.6168L26.0559 92.0828L22.511 94.3009L21.6645 90.2084L24.1001 88.6168Z" fill="#FFB9B9"/>
<path d="M24.9353 92.5643C24.9353 92.5643 26.0092 90.8158 26.3976 91.1085C26.786 91.4012 28.3881 92.6693 28.3881 92.6693L30.4749 94.668C30.4749 94.668 37.5253 95.4135 33.0453 97.8837C28.5654 100.354 26.0896 98.3058 26.0896 98.3058C26.0896 98.3058 19.815 98.6321 19.9162 96.8815C20.0174 95.1308 22.041 92.3613 22.041 92.3613C22.041 92.3613 24.5915 94.0712 24.9353 92.5643Z" fill="#2F2E41"/>
<path opacity="0.1" d="M24.9353 92.5643C24.9353 92.5643 26.0092 90.8158 26.3976 91.1085C26.786 91.4012 28.3881 92.6693 28.3881 92.6693L30.4749 94.668C30.4749 94.668 37.5253 95.4135 33.0453 97.8837C28.5654 100.354 26.0896 98.3058 26.0896 98.3058C26.0896 98.3058 19.815 98.6321 19.9162 96.8815C20.0174 95.1308 22.041 92.3613 22.041 92.3613C22.041 92.3613 24.5915 94.0712 24.9353 92.5643Z" fill="black"/>
<path d="M15.4211 49.4391L17.2547 71.6255C17.2547 71.6255 17.3158 84.8885 19.2716 87.4555C21.2275 90.0226 21.2886 91.3061 21.2886 91.3061L25.3225 89.228C25.3225 89.228 23.9779 89.1058 24.5891 88.2501C25.2003 87.3944 27.0338 88.2501 25.3225 87.0277C23.6111 85.8053 23.2444 85.7653 23.6723 85.2352C23.936 84.8991 24.1237 84.5097 24.2223 84.094L23.1222 70.4031L25.2003 46.5665L15.4211 49.4391Z" fill="#2F2E41"/>
<path opacity="0.1" d="M15.4211 49.4391L17.2547 71.6255C17.2547 71.6255 17.3158 84.8885 19.2716 87.4555C21.2275 90.0226 21.2886 91.3061 21.2886 91.3061L25.3225 89.228C25.3225 89.228 23.9779 89.1058 24.5891 88.2501C25.2003 87.3944 27.0338 88.2501 25.3225 87.0277C23.6111 85.8053 23.2444 85.7653 23.6723 85.2352C23.936 84.8991 24.1237 84.5097 24.2223 84.094L23.1222 70.4031L25.2003 46.5665L15.4211 49.4391Z" fill="black"/>
<path d="M20.4329 88.6168L18.7216 93.1397L13.832 91.3061L16.888 88.1278L20.4329 88.6168Z" fill="#FFB9B9"/>
<path d="M18.0049 91.1953C18.0049 91.1953 19.832 90.0533 20.0604 90.5101C20.2888 90.9669 21.2023 92.9081 21.2023 92.9081L22.23 95.7629C22.23 95.7629 28.5105 99.7595 23.1435 99.9879C17.7766 100.216 16.4063 97.1332 16.4063 97.1332C16.4063 97.1332 10.3542 94.5068 11.2677 92.9081C12.1813 91.3094 15.3786 89.6514 15.3786 89.6514C15.3786 89.6514 16.9772 92.4513 18.0049 91.1953Z" fill="#2F2E41"/>
<path d="M30.9455 49.5002L31.9234 69.9142C31.9234 69.9142 27.1561 83.4828 22.9999 85.6831C22.9999 85.6831 22.9999 88.3723 22.022 88.8613C21.7306 89.0117 21.4723 89.2191 21.2624 89.471C21.0524 89.723 20.8951 90.0144 20.7996 90.3282L15.4211 88.9835C15.4211 88.9835 16.7657 87.6389 16.2768 87.0277C15.7878 86.4165 17.8659 85.0719 17.8659 85.0719L23.2444 71.9923C23.2444 71.9923 24.1001 71.6255 24.3446 70.4031C24.5891 69.1808 25.078 69.1808 23.8556 68.9363C22.6332 68.6918 22.6332 67.4694 22.6332 67.4694L18.5993 48.889L30.9455 49.5002Z" fill="#2F2E41"/>
<path d="M26.5449 17.4735C29.2453 17.4735 31.4345 15.2844 31.4345 12.5839C31.4345 9.8835 29.2453 7.69437 26.5449 7.69437C23.8445 7.69437 21.6553 9.8835 21.6553 12.5839C21.6553 15.2844 23.8445 17.4735 26.5449 17.4735Z" fill="#FFB9B9"/>
<path d="M22.2054 12.8895C22.2054 12.8895 21.8387 19.1237 21.3497 19.7349C20.8608 20.3461 26.4838 20.2239 26.4838 20.2239C26.4838 20.2239 26.1171 14.9676 26.4838 14.4787C26.8505 13.9897 22.2054 12.8895 22.2054 12.8895Z" fill="#FFB9B9"/>
<path d="M20.5552 17.8402C20.5552 17.8402 25.2003 17.3513 26.9116 18.8181C27.4583 19.2849 28.044 19.7039 28.6623 20.0705C29.1786 20.3803 29.6088 20.8149 29.9133 21.3344C30.2177 21.8538 30.3866 22.4416 30.4044 23.0434L31.3122 50.8448C31.3122 50.8448 17.4992 49.6224 14.9322 50.8448C14.9322 50.8448 14.8099 48.0333 14.5654 47.6666C14.3872 47.3993 14.0791 36.7377 13.9251 30.9789C13.8383 27.729 14.9552 24.5411 17.1346 22.1287C17.8754 21.3086 18.7032 20.6212 19.5772 20.285C19.5772 20.285 19.3328 17.9625 20.5552 17.8402Z" fill="#575A89"/>
<path d="M28.0118 20.285C28.6999 20.4661 29.3192 20.8465 29.7918 21.3783C30.2645 21.9102 30.5695 22.5699 30.6685 23.2745L32.4124 35.6872L34.8572 45.5886C34.8572 45.5886 36.0796 46.6887 35.5906 47.2999C35.1017 47.9111 36.2018 50.4781 36.2018 50.4781L33.1458 51.4561C33.1458 51.4561 32.7791 48.889 32.1679 48.7668C31.6308 48.6594 25.6179 32.5968 24.1686 28.7055C23.9687 28.169 23.8556 27.8639 23.8556 27.8639C23.8556 27.8639 24.1001 19.6738 28.0118 20.285Z" fill="#575A89"/>
<path opacity="0.1" d="M23.9167 27.8027L31.3122 47.8096C31.3122 47.8096 24.1612 34.2814 23.9167 27.8027Z" fill="black"/>
<path d="M23.9905 14.0247C24.404 14 24.8078 14.1398 25.2184 14.1943C26.6876 14.3894 28.216 13.3233 28.5404 11.8771C28.5664 11.6846 28.6238 11.4975 28.7103 11.3235C28.9364 10.9544 29.4513 10.884 29.8759 10.9689C30.3004 11.0538 30.7028 11.2524 31.1351 11.2751C31.8026 11.3102 32.4434 10.8992 32.7991 10.3333C33.1549 9.76741 33.2556 9.07108 33.2076 8.40438L32.8876 8.74024C32.7576 8.46515 32.7074 8.15909 32.7427 7.85688C32.5731 7.81172 32.3948 7.81084 32.2248 7.85435C32.0548 7.89785 31.8988 7.98426 31.7717 8.10532C31.4896 8.13535 31.7025 7.58196 31.4929 7.39071C31.4051 7.31063 31.2706 7.32574 31.1518 7.32689C30.5515 7.33267 30.0659 6.87355 29.5929 6.50395C28.7733 5.86499 27.8149 5.42782 26.7951 5.22778C26.1173 5.09557 25.3965 5.07433 24.7537 5.32673C24.2258 5.53401 23.7839 5.91155 23.3751 6.30464C22.3687 7.27235 21.4775 8.40938 21.0589 9.74129C20.7185 10.8322 20.7089 11.9996 21.0312 13.096C21.1999 13.6654 21.7083 15.6154 22.4526 15.6608C23.3879 15.7179 22.8264 14.0942 23.9905 14.0247Z" fill="#2F2E41"/>
<path d="M8.74775 99.0592L8.61656 99.01C8.58773 98.9991 5.71845 97.8998 4.37435 95.4072C3.0302 92.9144 3.68837 89.9131 3.69517 89.8831L3.72615 89.7464L3.85728 89.7956C3.88611 89.8065 6.75533 90.9058 8.09949 93.3984C9.44364 95.8912 8.78547 98.8925 8.77867 98.9225L8.74775 99.0592ZM4.58958 95.2911C5.72597 97.3987 7.99337 98.479 8.56785 98.7256C8.67708 98.1099 9.01963 95.62 7.88426 93.5145C6.74901 91.4092 4.48072 90.3272 3.90599 90.08C3.79669 90.6961 3.45427 93.1857 4.58958 95.2911H4.58958Z" fill="#3F3D56"/>
<path d="M5.40156 94.5328C7.81708 95.986 8.74737 98.8726 8.74737 98.8726C8.74737 98.8726 5.76134 99.403 3.34582 97.9497C0.930297 96.4965 3.8147e-06 93.6099 3.8147e-06 93.6099C3.8147e-06 93.6099 2.98604 93.0795 5.40156 94.5328Z" fill="#B2E595"/>
</g>
<defs>
<clipPath id="clip0">
<rect width="117.735" height="100" fill="white"/>
</clipPath>
</defs>
</svg>
