<svg width="184" height="100" viewBox="0 0 184 100" fill="none" xmlns="http://www.w3.org/2000/svg">
<path d="M172.696 27.3869H127.728V27.1515C127.728 27.0607 127.711 26.9708 127.676 26.8869C127.641 26.803 127.59 26.7268 127.526 26.6626C127.462 26.5984 127.386 26.5475 127.302 26.5127C127.218 26.478 127.128 26.4601 127.037 26.4601H108.03C107.939 26.4601 107.849 26.478 107.765 26.5127C107.681 26.5475 107.605 26.5984 107.541 26.6626C107.477 26.7268 107.426 26.803 107.391 26.8869C107.356 26.9708 107.338 27.0607 107.338 27.1515V27.3869H62.1851C61.7857 27.3869 61.3902 27.4656 61.0211 27.6185C60.6521 27.7713 60.3168 27.9954 60.0343 28.2778C59.7519 28.5603 59.5278 28.8956 59.3749 29.2646C59.2221 29.6337 59.1434 30.0292 59.1434 30.4287V92.0034C59.1434 92.4028 59.2221 92.7984 59.3749 93.1674C59.5278 93.5364 59.7519 93.8718 60.0343 94.1542C60.3168 94.4367 60.6521 94.6607 61.0211 94.8136C61.3902 94.9664 61.7857 95.0451 62.1851 95.0451H172.696C173.503 95.0451 174.277 94.7246 174.847 94.1542C175.417 93.5838 175.738 92.8101 175.738 92.0034V30.4287C175.738 29.6219 175.417 28.8483 174.847 28.2778C174.277 27.7074 173.503 27.3869 172.696 27.3869Z" fill="#3F3D56"/>
<path d="M64.6041 32.6015C64.5112 32.6026 64.4224 32.6405 64.3574 32.7069C64.2923 32.7732 64.2562 32.8627 64.257 32.9557V92.5431C64.2562 92.636 64.2923 92.7255 64.3574 92.7919C64.4224 92.8583 64.5112 92.8961 64.6041 92.8972H170.277C170.37 92.8961 170.459 92.8583 170.524 92.7919C170.589 92.7255 170.625 92.636 170.624 92.5431V32.9557C170.625 32.8627 170.589 32.7732 170.524 32.7069C170.459 32.6405 170.37 32.6026 170.277 32.6015H64.6041Z" fill="white"/>
<path d="M117.348 31.0942C117.962 31.0942 118.46 30.5963 118.46 29.982C118.46 29.3678 117.962 28.8698 117.348 28.8698C116.734 28.8698 116.236 29.3678 116.236 29.982C116.236 30.5963 116.734 31.0942 117.348 31.0942Z" fill="#00BFA6"/>
<path d="M177.763 90.8952H167.18V89.8023C167.18 89.7422 167.113 89.6936 167.029 89.6936H163.401C163.317 89.6936 163.249 89.7422 163.249 89.8023V90.8952H160.982V89.8023C160.982 89.7422 160.914 89.6936 160.831 89.6936H157.202C157.119 89.6936 157.051 89.7422 157.051 89.8023V90.8952H154.783V89.8023C154.783 89.7422 154.715 89.6936 154.632 89.6936H151.004C150.92 89.6936 150.852 89.7422 150.852 89.8023V90.8952H148.585V89.8023C148.585 89.7422 148.517 89.6936 148.433 89.6936H144.805C144.721 89.6936 144.654 89.7422 144.654 89.8023V90.8952H142.386V89.8023C142.386 89.7422 142.318 89.6936 142.235 89.6936H138.606C138.523 89.6936 138.455 89.7422 138.455 89.8023V90.8952H136.187V89.8023C136.187 89.7422 136.12 89.6936 136.036 89.6936H132.408C132.324 89.6936 132.257 89.7422 132.257 89.8023V90.8952H129.989V89.8023C129.989 89.7422 129.921 89.6936 129.838 89.6936H101.415C101.332 89.6936 101.264 89.7422 101.264 89.8023V90.8952H98.9962V89.8023C98.9962 89.7422 98.9285 89.6936 98.845 89.6936H95.2166C95.1331 89.6936 95.0654 89.7422 95.0654 89.8023V90.8952H92.7976V89.8023C92.7976 89.7422 92.73 89.6936 92.6465 89.6936H89.018C88.9345 89.6936 88.8669 89.7422 88.8669 89.8023V90.8952H86.5991V89.8023C86.5991 89.7422 86.5314 89.6936 86.4479 89.6936H82.8195C82.736 89.6936 82.6683 89.7422 82.6683 89.8023V90.8952H80.4006V89.8023C80.4006 89.7422 80.3329 89.6936 80.2494 89.6936H76.6209C76.5374 89.6936 76.4698 89.7422 76.4698 89.8023V90.8952H74.202V89.8023C74.202 89.7422 74.1343 89.6936 74.0508 89.6936H70.4224C70.3389 89.6936 70.2712 89.7422 70.2712 89.8023V90.8952H68.0035V89.8023C68.0035 89.7422 67.9358 89.6936 67.8523 89.6936H64.2238C64.1403 89.6936 64.0727 89.7422 64.0727 89.8023V90.8952H57.1182C55.1143 90.8952 53.4898 92.063 53.4898 93.5035V94.683C53.4898 96.1235 55.1143 97.2913 57.1182 97.2913H177.763C179.767 97.2913 181.392 96.1235 181.392 94.683V93.5035C181.392 92.063 179.767 90.8952 177.763 90.8952Z" fill="#3F3D56"/>
<path d="M158.138 44.2909H119.525C119.117 44.2909 118.787 44.6212 118.787 45.0287V82.1659C118.787 82.5733 119.117 82.9037 119.525 82.9037H158.138C158.545 82.9037 158.876 82.5733 158.876 82.1659V45.0287C158.876 44.6212 158.545 44.2909 158.138 44.2909Z" fill="#E6E6E6"/>
<path d="M35.4419 9.44235C35.527 11.1749 35.4305 12.9116 35.1541 14.6241C35.1541 14.6241 33.1389 19.23 35.4419 21.2451C37.7449 23.2602 42.063 15.1998 42.063 15.1998C41.7643 13.4114 41.5921 11.7302 42.063 10.5938L35.4419 9.44235Z" fill="#FFB8B8"/>
<path d="M38.6085 65.8652V72.1984C38.6085 72.1984 37.7449 84.0012 38.6085 86.8799L38.3206 92.3495H41.4872L42.3508 85.7284C42.3508 85.7284 44.9417 77.3801 44.078 72.1984L44.6538 65.8652H38.6085Z" fill="#FFB8B8"/>
<path d="M34.0026 65.8652V72.1984C34.0026 72.1984 34.8662 84.0012 34.0026 86.8799L34.2904 92.3495H31.1239L30.2602 85.7284C30.2602 85.7284 27.6694 77.3801 28.533 72.1984L27.9573 65.8652H34.0026Z" fill="#FFB8B8"/>
<path d="M26.6618 42.1158C26.6618 42.1158 24.9346 53.0549 26.0861 59.3881C27.2376 65.7213 27.2376 67.7364 27.2376 67.7364L34.4344 67.4485L36.4495 55.6458L38.1767 67.7364L46.8129 66.2971C46.8129 66.2971 46.8129 57.0852 47.1007 55.0701C47.3886 53.0549 47.3886 41.5401 47.3886 41.5401L26.6618 42.1158Z" fill="#2F2E41"/>
<path d="M42.063 92.3495C42.063 92.3495 38.8964 90.3344 37.457 92.3495V95.8039C37.457 95.8039 36.3056 98.3948 40.3358 97.819C44.366 97.2433 42.9266 95.2282 42.9266 95.2282L42.063 92.3495Z" fill="#2F2E41"/>
<path d="M30.5481 92.3495C30.5481 92.3495 33.7147 90.3344 35.154 92.3495V95.8039C35.154 95.8039 36.3055 98.3948 32.2753 97.819C28.2451 97.2433 29.6845 95.2282 29.6845 95.2282L30.5481 92.3495Z" fill="#2F2E41"/>
<path d="M39.1843 12.3211C41.7281 12.3211 43.7902 10.2589 43.7902 7.71513C43.7902 5.17133 41.7281 3.10918 39.1843 3.10918C36.6405 3.10918 34.5783 5.17133 34.5783 7.71513C34.5783 10.2589 36.6405 12.3211 39.1843 12.3211Z" fill="#FFB8B8"/>
<path d="M37.1691 18.6542L35.189 13.9953L33.1389 14.9119L30.5481 29.8813L30.836 44.2748C30.836 44.2748 44.0781 43.6991 45.8053 44.5627C47.5325 45.4263 43.7902 16.3513 43.7902 16.3513L42.063 14.1968L37.1691 18.6542Z" fill="#FFD3D3"/>
<path d="M35.5016 12.3211C35.5016 12.3211 31.1239 13.4726 31.1239 15.1998C31.1239 15.1998 26.8058 16.0634 26.8058 16.927C26.8058 17.7906 26.5179 39.6689 26.5179 39.6689C26.5179 39.6689 23.9271 44.5627 25.9422 48.5929L25.6543 50.8959L31.4117 51.4717L35.442 16.0634L35.5016 12.3211Z" fill="#2F2E41"/>
<path d="M41.7154 12.3211C41.7154 12.3211 46.0932 13.4726 46.0932 15.1998C46.0932 15.1998 50.4113 16.0634 50.4113 16.927C50.4113 17.7906 50.6992 39.6689 50.6992 39.6689C50.6992 39.6689 53.29 44.5627 51.2749 48.5929L51.5628 50.8959L45.8053 51.4717L41.7751 16.0634L41.7154 12.3211Z" fill="#2F2E41"/>
<path d="M42.9266 1.66982C42.9266 1.66982 43.2145 0.518328 41.7751 1.09407C41.7751 1.09407 40.0479 -0.92103 38.3206 0.518329C38.3206 0.518329 34.8662 -0.0574168 34.8662 2.8213C34.8662 5.70002 34.7033 6.65056 34.7033 6.65056C34.7033 6.65056 35.7298 3.97279 37.7449 4.26066C38.9763 4.43658 39.6703 4.28998 40.0237 4.14935C40.4058 3.98583 40.8341 3.96552 41.2299 4.09214C41.4786 4.17623 41.7068 4.31154 41.8999 4.48932C42.0929 4.66711 42.2466 4.88342 42.3508 5.12428C42.5281 5.53316 42.7367 5.92773 42.9748 6.30446C43.3105 6.80636 43.5827 7.34792 43.7852 7.91677L44.3659 4.54853C44.3659 4.54853 44.6538 2.8213 43.7902 2.24556C43.7902 2.24556 44.0781 1.38195 42.9266 1.66982Z" fill="#2F2E41"/>
<path d="M130.393 50.7312H52.8687V75.9871H130.393V50.7312Z" fill="#FFD3D3"/>
<path d="M21.4801 47.0096C21.4801 47.0096 19.7529 53.6307 22.3437 53.0549C24.9346 52.4792 24.3588 46.7218 24.3588 46.7218L21.4801 47.0096Z" fill="#FFB8B8"/>
<path d="M55.7369 47.0096C55.7369 47.0096 57.4642 53.6307 54.8733 53.0549C52.2824 52.4792 52.8582 46.7218 52.8582 46.7218L55.7369 47.0096Z" fill="#FFB8B8"/>
<path d="M28.2451 16.927L27.4505 16.3085C27.4505 16.3085 26.5179 16.3513 26.23 16.927C25.9421 17.5028 21.3362 31.8964 21.3362 31.8964C21.3362 31.8964 19.8968 39.381 20.7604 43.987L21.0483 47.4414H25.0785L24.7907 41.9719L27.6694 31.0328L28.2451 16.927Z" fill="#2F2E41"/>
<path d="M48.9719 16.927L49.7665 16.3085C49.7665 16.3085 50.6991 16.3513 50.987 16.927C51.2749 17.5028 55.8808 31.8964 55.8808 31.8964C55.8808 31.8964 57.3202 39.381 56.4566 43.987L56.1687 47.4414H52.1385L52.4264 41.9719L49.5476 31.0328L48.9719 16.927Z" fill="#2F2E41"/>
<path d="M72.3047 53.9157H67.9124V58.308H72.3047V53.9157Z" fill="white"/>
<path d="M115.349 55.8922H79.9913V56.3314H115.349V55.8922Z" fill="white"/>
<path d="M72.3047 61.163H67.9124V65.5553H72.3047V61.163Z" fill="white"/>
<path d="M115.349 63.1395H79.9913V63.5788H115.349V63.1395Z" fill="white"/>
<path d="M72.3047 68.4103H67.9124V72.8026H72.3047V68.4103Z" fill="white"/>
<path d="M115.349 70.3868H79.9913V70.8261H115.349V70.3868Z" fill="white"/>
</svg>
