<svg width="30" height="18" viewBox="0 0 30 18" fill="none" xmlns="http://www.w3.org/2000/svg">
<path d="M28.9557 4.18134L15.9773 0.164179C15.2701 -0.0547262 14.507 -0.0547262 13.8003 0.164179L0.821442 4.18134C-0.273814 4.52024 -0.273814 5.97945 0.821442 6.31836L3.08407 7.01867C2.58763 7.63694 2.2824 8.39116 2.25216 9.21709C1.8041 9.47584 1.48865 9.94271 1.48865 10.5C1.48865 11.0054 1.75292 11.4305 2.13352 11.7024L0.945671 17.0873C0.84238 17.5556 1.19599 18 1.67196 18H4.28262C4.75906 18 5.11267 17.5556 5.00938 17.0873L3.82153 11.7024C4.20213 11.4305 4.4664 11.0054 4.4664 10.5C4.4664 9.95771 4.16537 9.50396 3.73778 9.24053C3.77314 8.53647 4.13048 7.91397 4.70044 7.51929L13.7998 10.336C14.2214 10.4663 15.03 10.629 15.9768 10.336L28.9557 6.31883C30.0514 5.97945 30.0514 4.52071 28.9557 4.18134ZM16.4142 11.7699C15.0868 12.1805 13.9557 11.9536 13.3625 11.7699L6.61504 9.68162L5.95528 15C5.95528 16.657 9.95478 18 14.8886 18C19.8223 18 23.8218 16.657 23.8218 15L23.1621 9.68115L16.4142 11.7699Z" fill="#7D7D7D"/>
</svg>
