<svg width="21" height="24" viewBox="0 0 21 24" fill="none" xmlns="http://www.w3.org/2000/svg">
<path d="M14.8919 15.0286L10.4439 19.5002L5.99594 15.0286C2.66227 15.1739 0 17.9159 0 21.3001V21.7501C0 22.9922 1.00243 24 2.23799 24H18.6499C19.8854 24 20.8879 22.9922 20.8879 21.7501V21.3001C20.8879 17.9159 18.2256 15.1739 14.8919 15.0286ZM0.634096 3.74161L0.932494 3.81192V6.54929C0.606121 6.74615 0.372998 7.08833 0.372998 7.5008C0.372998 7.89454 0.587471 8.22264 0.890532 8.4242L0.163186 11.3444C0.0839245 11.6678 0.261098 12.0006 0.517534 12.0006H2.46645C2.72288 12.0006 2.90006 11.6678 2.82079 11.3444L2.09345 8.4242C2.39651 8.22264 2.61098 7.89454 2.61098 7.5008C2.61098 7.08833 2.37786 6.74615 2.05149 6.54929V4.08378L5.12872 4.82906C4.72775 5.63527 4.47597 6.53523 4.47597 7.5008C4.47597 10.8147 7.14757 13.5005 10.4439 13.5005C13.7403 13.5005 16.4119 10.8147 16.4119 7.5008C16.4119 6.53523 16.1648 5.63527 15.7592 4.82906L20.2491 3.74161C21.0977 3.53537 21.0977 2.47136 20.2491 2.26512L11.3718 0.108979C10.7656 -0.0363264 10.1269 -0.0363264 9.52077 0.108979L0.634096 2.26044C-0.209811 2.46668 -0.209811 3.53537 0.634096 3.74161Z" fill="#7D7D7D"/>
</svg>
