<svg width="22" height="18" viewBox="0 0 22 18" fill="none" xmlns="http://www.w3.org/2000/svg">
<path d="M5.81667 0.147051C5.77022 0.100441 5.71502 0.0634582 5.65425 0.0382239C5.59348 0.0129896 5.52833 0 5.46252 0C5.39672 0 5.33156 0.0129896 5.27079 0.0382239C5.21002 0.0634582 5.15483 0.100441 5.10838 0.147051L2.45523 2.78479L1.50946 1.86318C1.46301 1.81657 1.40782 1.77959 1.34705 1.75436C1.28627 1.72912 1.22112 1.71613 1.15532 1.71613C1.08951 1.71613 1.02436 1.72912 0.963586 1.75436C0.902814 1.77959 0.847622 1.81657 0.801173 1.86318L0.147051 2.51814C0.100441 2.56459 0.0634582 2.61978 0.0382239 2.68055C0.0129896 2.74132 0 2.80648 0 2.87228C0 2.93808 0.0129896 3.00324 0.0382239 3.06401C0.0634582 3.12478 0.100441 3.17998 0.147051 3.22642L2.12983 5.20129C2.2288 5.29537 2.36013 5.34783 2.49668 5.34783C2.63323 5.34783 2.76456 5.29537 2.86353 5.20129L3.51307 4.5505L6.5212 1.54279C6.61493 1.44899 6.66788 1.32202 6.66859 1.18942C6.66929 1.05682 6.61768 0.929291 6.52495 0.834504L5.81667 0.147051ZM5.81667 6.77952C5.77022 6.73291 5.71502 6.69592 5.65425 6.67069C5.59348 6.64545 5.52833 6.63246 5.46252 6.63246C5.39672 6.63246 5.33156 6.64545 5.27079 6.67069C5.21002 6.69592 5.15483 6.73291 5.10838 6.77952L2.45523 9.43433L1.50946 8.51356C1.46301 8.46695 1.40782 8.42997 1.34705 8.40474C1.28627 8.3795 1.22112 8.36651 1.15532 8.36651C1.08951 8.36651 1.02436 8.3795 0.963586 8.40474C0.902814 8.42997 0.847622 8.46695 0.801173 8.51356L0.147051 9.16727C0.100441 9.21372 0.0634582 9.26891 0.0382239 9.32968C0.0129896 9.39045 0 9.45561 0 9.52141C0 9.58721 0.0129896 9.65237 0.0382239 9.71314C0.0634582 9.77391 0.100441 9.82911 0.147051 9.87555L2.12483 11.8546C2.22373 11.9486 2.35499 12.0011 2.49147 12.0011C2.62795 12.0011 2.75922 11.9486 2.85812 11.8546L3.51224 11.2009L6.52037 8.19192C6.61373 8.09877 6.66652 7.97251 6.66722 7.84063C6.66792 7.70875 6.61649 7.58193 6.52412 7.4878L5.81667 6.77952ZM2.66646 14.0003C1.56279 14.0003 0.642017 14.896 0.642017 16.0001C0.642017 17.1042 1.56362 18 2.66646 18C3.19686 18 3.70553 17.7893 4.08058 17.4143C4.45563 17.0392 4.66633 16.5305 4.66633 16.0001C4.66633 15.4697 4.45563 14.9611 4.08058 14.586C3.70553 14.211 3.19686 14.0003 2.66646 14.0003ZM20.6652 14.6669H8.66605C8.48925 14.6669 8.3197 14.7371 8.19468 14.8621C8.06967 14.9872 7.99943 15.1567 7.99943 15.3335V16.6668C7.99943 16.8436 8.06967 17.0131 8.19468 17.1381C8.3197 17.2631 8.48925 17.3334 8.66605 17.3334H20.6652C20.842 17.3334 21.0116 17.2631 21.1366 17.1381C21.2616 17.0131 21.3319 16.8436 21.3319 16.6668V15.3335C21.3319 15.1567 21.2616 14.9872 21.1366 14.8621C21.0116 14.7371 20.842 14.6669 20.6652 14.6669ZM20.6652 1.33447H8.66605C8.48925 1.33447 8.3197 1.4047 8.19468 1.52972C8.06967 1.65473 7.99943 1.82429 7.99943 2.00109V3.33433C7.99943 3.51113 8.06967 3.68069 8.19468 3.80571C8.3197 3.93072 8.48925 4.00095 8.66605 4.00095H20.6652C20.842 4.00095 21.0116 3.93072 21.1366 3.80571C21.2616 3.68069 21.3319 3.51113 21.3319 3.33433V2.00109C21.3319 1.82429 21.2616 1.65473 21.1366 1.52972C21.0116 1.4047 20.842 1.33447 20.6652 1.33447ZM20.6652 8.00068H8.66605C8.48925 8.00068 8.3197 8.07092 8.19468 8.19593C8.06967 8.32095 7.99943 8.4905 7.99943 8.6673V10.0005C7.99943 10.1773 8.06967 10.3469 8.19468 10.4719C8.3197 10.5969 8.48925 10.6672 8.66605 10.6672H20.6652C20.842 10.6672 21.0116 10.5969 21.1366 10.4719C21.2616 10.3469 21.3319 10.1773 21.3319 10.0005V8.6673C21.3319 8.4905 21.2616 8.32095 21.1366 8.19593C21.0116 8.07092 20.842 8.00068 20.6652 8.00068Z" fill="#7D7D7D"/>
</svg>
